HIERARCHY
ROOT Hips
{
	OFFSET -0.001795 -0.223333 0.028219
	CHANNELS 6 Xposition Yposition Zposition Zrotation Yrotation Xrotation 
	JOINT LeftUpLeg
	{
		OFFSET 0.069520 -0.091406 -0.006815
		CHANNELS 3 Zrotation Yrotation Xrotation
		JOINT LeftLeg
		{
			OFFSET 0.034277 -0.375199 -0.004496
			CHANNELS 3 Zrotation Yrotation Xrotation
			JOINT LeftFoot
			{
				OFFSET -0.013596 -0.397961 -0.043693
				CHANNELS 3 Zrotation Yrotation Xrotation
				JOINT LeftToe
				{
					OFFSET 0.026358 -0.055791 0.119288
					CHANNELS 3 Zrotation Yrotation Xrotation
					End Site
					{
						OFFSET 0.000000 0.000000 0.000000
					}
				}
			}
		}
	}
	JOINT RightUpLeg
	{
		OFFSET -0.067670 -0.090522 -0.004320
		CHANNELS 3 Zrotation Yrotation Xrotation
		JOINT RightLeg
		{
			OFFSET -0.038290 -0.382569 -0.008850
			CHANNELS 3 Zrotation Yrotation Xrotation
			JOINT RightFoot
			{
				OFFSET 0.015774 -0.398415 -0.042312
				CHANNELS 3 Zrotation Yrotation Xrotation
				JOINT RightToe
				{
					OFFSET -0.025372 -0.048144 0.123348
					CHANNELS 3 Zrotation Yrotation Xrotation
					End Site
					{
						OFFSET 0.000000 0.000000 0.000000
					}
				}
			}
		}
	}
	JOINT Spine
	{
		OFFSET -0.002533 0.108963 -0.026696
		CHANNELS 3 Zrotation Yrotation Xrotation
		JOINT Spine1
		{
			OFFSET 0.005487 0.135180 0.001092
			CHANNELS 3 Zrotation Yrotation Xrotation
			JOINT Spine2
			{
				OFFSET 0.001457 0.052922 0.025425
				CHANNELS 3 Zrotation Yrotation Xrotation
				JOINT Neck
				{
					OFFSET -0.002778 0.213870 -0.042857
					CHANNELS 3 Zrotation Yrotation Xrotation
					JOINT Head
					{
						OFFSET 0.005152 0.064970 0.051349
						CHANNELS 3 Zrotation Yrotation Xrotation
						End Site
						{
							OFFSET 0.000000 0.000000 0.000000
						}
					}
				}
				JOINT LeftShoulder
				{
					OFFSET 0.078845 0.121749 -0.034090
					CHANNELS 3 Zrotation Yrotation Xrotation
					JOINT LeftArm
					{
						OFFSET 0.090977 0.030469 -0.008868
						CHANNELS 3 Zrotation Yrotation Xrotation
						JOINT LeftForeArm
						{
							OFFSET 0.259612 -0.012772 -0.027456
							CHANNELS 3 Zrotation Yrotation Xrotation
							JOINT LeftHand
							{
								OFFSET 0.249234 0.008986 -0.001171
								CHANNELS 3 Zrotation Yrotation Xrotation
								End Site
								{
									OFFSET 0.000000 0.000000 0.000000
								}
							}
						}
					}
				}
				JOINT RightShoulder
				{
					OFFSET -0.081759 0.118833 -0.038615
					CHANNELS 3 Zrotation Yrotation Xrotation
					JOINT RightArm
					{
						OFFSET -0.096012 0.032551 -0.009143
						CHANNELS 3 Zrotation Yrotation Xrotation
						JOINT RightForeArm
						{
							OFFSET -0.253742 -0.013329 -0.021401
							CHANNELS 3 Zrotation Yrotation Xrotation
							JOINT RightHand
							{
								OFFSET -0.255298 0.007772 -0.005559
								CHANNELS 3 Zrotation Yrotation Xrotation
								End Site
								{
									OFFSET 0.000000 0.000000 0.000000
								}
							}
						}
					}
				}
			}
		}
	}
}
MOTION
Frames: 14
Frame Time: 0.050000
0.058321 0.908743 1.241616 5.288218 -9.731394 -1.992282 8.266799 0.313157 5.188482 -11.718907 6.247416 38.470956 -16.816209 -13.530327 28.267985 0.000000 0.000000 0.000000 -0.686518 2.903340 -25.434720 4.213745 0.098914 18.930606 -10.692037 -25.121334 10.275152 0.000000 0.000000 0.000000 3.054421 -0.003906 -0.070443 8.912912 -4.047978 -1.520814 -12.708621 -3.925215 1.392817 10.389601 -6.911858 -7.651519 0.000000 0.000000 0.000000 -24.936953 -1.290403 -0.057328 -39.845097 -11.459474 -1.335993 -30.015763 -30.464267 9.887420 0.000000 0.000000 0.000000 24.243221 -13.502647 -11.993202 43.127297 -13.136234 -7.893034 19.598449 32.671990 5.866965 0.000000 0.000000 0.000000 
0.044011 0.914200 1.274132 6.421752 -17.558218 -3.288974 8.708576 0.330739 -1.443929 -9.712008 9.065884 47.474768 -15.356696 -13.968529 24.891721 0.000000 0.000000 0.000000 2.467914 3.255430 -22.541650 0.572659 1.413897 19.570679 -7.342677 -18.915579 5.790740 0.000000 0.000000 0.000000 3.198983 -0.040565 0.555970 8.687764 -3.848382 -1.836716 -13.026903 -3.525596 1.513689 10.636906 -7.488870 -6.115877 0.000000 0.000000 0.000000 -26.967760 -2.067968 1.644834 -38.007362 -10.520615 -2.037263 -28.046143 -30.481373 9.493106 0.000000 0.000000 0.000000 24.715201 -12.101878 -12.376368 42.208390 -12.398829 -7.254480 20.906700 37.025365 6.718775 0.000000 0.000000 0.000000 
0.030775 0.919098 1.300768 7.589903 -27.814275 -4.555212 8.572952 0.551311 -6.463367 -6.832492 11.209472 49.603361 -6.012805 -7.727534 10.399990 0.000000 0.000000 0.000000 5.044793 3.388580 -20.356246 -2.090011 2.580632 20.219725 -3.591648 -10.239596 2.685291 0.000000 0.000000 0.000000 3.225216 -0.013193 0.135928 8.833885 -3.774993 -0.601335 -13.338941 -2.488152 1.233736 11.591121 -8.143920 -6.994770 0.000000 0.000000 0.000000 -25.986070 -1.543005 2.623912 -39.342151 -10.765825 -2.332347 -26.771209 -32.396958 10.041862 0.000000 0.000000 0.000000 23.438519 -10.271648 -12.004087 43.563836 -10.815785 -6.873824 24.465952 41.523495 8.306376 0.000000 0.000000 0.000000 
0.018631 0.926023 1.322238 9.585835 -39.629083 -6.853662 7.259117 0.791571 -9.406934 -3.901016 11.859251 46.006613 0.178001 -0.025446 -4.089232 0.000000 0.000000 0.000000 6.966350 2.946662 -17.198937 -5.070241 3.476464 19.140278 0.836820 0.721897 1.506553 0.000000 0.000000 0.000000 4.213861 -0.050575 0.867453 7.645007 -3.036355 -1.029252 -12.729482 -1.663547 1.933042 10.991780 -8.130425 -5.568217 0.000000 0.000000 0.000000 -28.524973 -1.415270 4.990158 -37.420662 -10.111390 -3.312922 -25.821435 -34.139050 10.541005 0.000000 0.000000 0.000000 21.262977 -10.527445 -12.782765 44.779597 -10.438581 -7.018412 32.160046 46.780237 11.505386 0.000000 0.000000 0.000000 
0.008504 0.931916 1.339152 11.959160 -52.550140 -8.605438 5.962350 1.176623 -11.988796 -1.651703 11.045557 39.073110 0.329761 1.456442 -3.946825 0.000000 0.000000 0.000000 8.327524 2.877804 -16.378405 -6.956975 4.274847 19.113925 6.045094 12.024589 2.770129 0.000000 0.000000 0.000000 4.849296 -0.023540 0.558273 6.494571 -2.233115 -1.469627 -12.042853 -0.849276 2.058208 11.647663 -8.613623 -6.202503 0.000000 0.000000 0.000000 -27.580000 0.572016 5.983233 -39.058194 -10.197671 -3.909556 -24.459509 -32.815426 10.039383 0.000000 0.000000 0.000000 19.293307 -10.530130 -13.627660 46.812148 -10.043451 -7.450364 42.247514 48.566743 14.805262 0.000000 0.000000 0.000000 
0.000426 0.937992 1.352550 18.793743 -66.365030 -15.223848 4.319705 1.633643 -13.537935 0.093715 9.826416 32.145092 -0.015602 2.439028 -4.164163 0.000000 0.000000 0.000000 9.359650 2.033068 -13.413177 -10.726707 4.230978 15.563150 13.535519 25.083546 6.731222 0.000000 0.000000 0.000000 5.348437 -0.073076 1.341073 5.408946 -1.107849 -0.292036 -10.018374 -0.871779 -0.021796 9.231486 -6.952036 -6.456681 0.000000 0.000000 0.000000 -30.427650 1.455623 9.212640 -36.944086 -9.021728 -5.154341 -23.104221 -33.688905 9.891932 0.000000 0.000000 0.000000 17.705555 -10.339327 -14.697090 45.516421 -10.870540 -7.376240 53.454131 49.191166 18.104733 0.000000 0.000000 0.000000 
-0.005972 0.940480 1.363661 46.931933 -78.518633 -42.671918 1.610655 1.891905 -15.010523 2.959386 8.385016 27.116545 -3.080236 -1.240169 -3.243126 0.000000 0.000000 0.000000 9.052611 1.568555 -12.467474 -14.443478 4.660334 13.779604 22.205283 37.273688 12.942466 0.000000 0.000000 0.000000 4.670066 -0.180986 2.715111 3.614964 -0.052214 -1.690588 -7.511692 -2.758603 1.155391 8.834208 -6.353237 -6.358607 0.000000 0.000000 0.000000 -32.917199 8.296729 10.123396 -36.404542 -13.025091 -5.810965 -22.005130 -31.352265 9.216995 0.000000 0.000000 0.000000 15.450299 -7.279643 -15.881385 45.872105 -12.359176 -7.915544 61.418609 51.233891 19.468467 0.000000 0.000000 0.000000 
-0.012337 0.941846 1.373252 131.125805 -79.116574 -127.237408 0.482547 2.950871 -16.273205 4.998770 8.184331 24.257698 -6.406571 -3.467133 -2.295124 0.000000 0.000000 0.000000 9.687303 0.807826 -9.623410 -16.277557 3.643761 10.115623 32.562735 41.901047 22.909713 0.000000 0.000000 0.000000 3.282816 -0.214766 4.903036 6.024123 0.930418 -1.140040 -6.963941 -3.202758 -0.730608 6.206259 -4.555163 -6.775345 0.000000 0.000000 0.000000 -35.730723 8.999216 15.461612 -34.488985 -15.058064 -6.902771 -18.525687 -30.566706 7.266660 0.000000 0.000000 0.000000 14.239403 -5.597884 -17.447692 44.420555 -12.732887 -7.817173 65.630074 47.925664 17.767266 0.000000 0.000000 0.000000 
-0.020735 0.939410 1.380214 157.589396 -69.169727 -153.710661 -0.453549 4.840505 -19.215316 8.227817 9.154390 25.151189 -12.661163 -8.029274 -0.991838 0.000000 0.000000 0.000000 9.805788 0.313845 -6.881839 -15.426053 2.524212 7.965769 34.039026 39.911380 24.214060 0.000000 0.000000 0.000000 2.336338 -0.128573 6.116004 5.515196 3.211384 0.656251 -3.208917 -7.996910 -1.449442 3.112681 -2.027686 -8.956613 0.000000 0.000000 0.000000 -39.236032 15.142045 17.878781 -30.948087 -20.881511 -7.699328 -14.808230 -28.311451 5.326695 0.000000 0.000000 0.000000 13.248967 -1.430075 -19.986680 40.996308 -13.973321 -6.916512 66.628063 49.310487 17.642517 0.000000 0.000000 0.000000 
-0.032631 0.936184 1.383171 166.423507 -58.199143 -163.404558 -1.847282 6.637218 -21.234897 13.344927 10.008576 26.587584 -23.065163 -12.453433 0.539116 0.000000 0.000000 0.000000 9.214743 0.196167 -3.308269 -12.218420 2.049423 8.738312 26.352723 35.005092 16.319630 0.000000 0.000000 0.000000 0.746681 0.206584 7.910160 7.621667 5.411566 1.371573 -2.072055 -11.541822 -1.691457 0.235784 1.699084 -7.066615 0.000000 0.000000 0.000000 -41.324034 18.658498 21.290655 -29.347902 -24.795042 -8.628532 -12.001577 -27.646983 3.888555 0.000000 0.000000 0.000000 12.672613 1.912263 -24.089475 37.856171 -15.960048 -6.491812 64.999237 46.895216 15.421906 0.000000 0.000000 0.000000 
-0.047763 0.934230 1.381075 171.196827 -48.800605 -168.357499 -2.839368 9.015260 -23.495781 15.629552 9.869470 25.342716 -33.293574 -12.881701 3.947126 0.000000 0.000000 0.000000 8.166430 0.600456 -0.892012 -6.896990 2.554716 11.014874 16.567048 28.404698 8.633981 0.000000 0.000000 0.000000 0.044533 0.363548 8.312524 8.574573 8.074322 2.235292 -0.553789 -14.537209 -1.826158 0.043810 5.733616 -4.506195 0.000000 0.000000 0.000000 -42.501669 21.014614 24.984468 -27.143436 -27.413871 -9.492453 -9.011368 -26.766690 2.405081 0.000000 0.000000 0.000000 12.117401 4.753288 -29.030730 33.439780 -20.231946 -6.395141 62.497283 42.940425 13.039521 0.000000 0.000000 0.000000 
-0.065285 0.932501 1.373548 173.194961 -38.958060 -170.280746 -3.875606 11.491497 -25.448361 15.677260 10.046183 23.493334 -44.943082 -10.012778 6.782275 0.000000 0.000000 0.000000 6.726628 1.763438 1.942931 -4.605436 3.009743 11.186641 8.757917 25.703369 3.588333 0.000000 0.000000 0.000000 -1.341836 0.636695 7.931032 9.277921 10.889078 3.031799 -0.979979 -16.882002 -0.438323 2.152507 10.144349 -1.679979 0.000000 0.000000 0.000000 -42.112399 25.122410 25.285973 -26.966593 -30.345537 -9.324626 -6.824287 -26.739463 1.751997 0.000000 0.000000 0.000000 11.450715 7.484237 -38.683075 29.420855 -26.743403 -6.643580 60.778406 34.379276 9.251706 0.000000 0.000000 0.000000 
-0.083912 0.932613 1.361944 174.664069 -31.496816 -171.151413 -5.430540 13.458216 -27.409065 14.699627 8.031149 19.058787 -56.001391 -4.339490 8.319638 0.000000 0.000000 0.000000 5.574005 2.662656 2.685100 -3.996996 3.321874 10.978269 11.461237 25.629700 7.297434 0.000000 0.000000 0.000000 -1.514094 0.459504 6.486364 9.780922 13.636318 3.869743 -1.233731 -18.174883 -0.318519 1.853849 13.531698 -1.639667 0.000000 0.000000 0.000000 -41.776042 26.978189 27.529165 -25.157223 -31.108505 -9.313937 -6.027015 -28.199307 1.365326 0.000000 0.000000 0.000000 9.394230 8.015302 -47.642906 24.381923 -33.130518 -6.593995 59.671245 23.896944 3.937407 0.000000 0.000000 0.000000 
-0.102607 0.932487 1.347894 175.603617 -25.118675 -172.054480 -6.321708 14.793625 -28.366182 12.512531 6.344511 14.785324 -67.144324 3.004046 8.175981 0.000000 0.000000 0.000000 4.448372 4.400236 4.782015 -3.789539 3.208137 9.893853 12.792516 25.327880 9.551996 0.000000 0.000000 0.000000 -1.328808 0.455490 6.420456 8.791379 14.153876 1.930717 -1.873683 -17.528605 1.890010 4.915876 17.123464 -1.714047 0.000000 0.000000 0.000000 -40.779795 28.927911 30.835519 -23.998116 -34.154625 -8.872194 -3.216708 -29.060303 0.477704 0.000000 0.000000 0.000000 5.292100 8.748024 -60.863365 17.693888 -42.866111 -6.076492 58.879617 10.916293 -3.017037 0.000000 0.000000 0.000000 
